# xmcd
#
# Track frame offsets: 
#        150
#        13204
#        25819
#        43503
#        53796
#        68180
#        77202
#        91990
#        103949
#        118148
#        133309
#        145664
#        154941
#        168500
#        184143
#        197520
#        214415
#        234051
#        243060
#        256286
#
# Disc length: 3576 seconds
#
# Revision: 1
# Processed by: cddbd v1.5.2PL0 Copyright (c) Steve Scherf et al.
# Submitted via: ExactAudioCopy v1.1
#
DISCID=180df614
DTITLE=The Spencer Davis Group - Autumn '66
DYEAR=1966
DGENRE=R&B
TTITLE0=Together 'Til The End Of Time (mono)
TTITLE1=Take This Hurt Off Me (mono)
TTITLE2=Nobody Knows You When You're Down And Out (mono)
TTITLE3=Midnight Special (mono)
TTITLE4=When A Man Loves A Woman (mono)
TTITLE5=When I Come Home (mono)
TTITLE6=Mean Woman Blues (mono)
TTITLE7=Dust My Blues (mono)
TTITLE8=On The Green Light (mono)
TTITLE9=Neighbour, Neighbour (mono)
TTITLE10=High Time Baby (mono)
TTITLE11=Somebody Help Me (mono)
TTITLE12=Gimme Some Lovin' (mono)
TTITLE13=Blues In F (mono)
TTITLE14=I'm A Man (mono)
TTITLE15=I Can't Get Enough of It (mono)
TTITLE16=Waltz For Lumumba (Waltz For Caroline) (mono)
TTITLE17=Somebody Help Me (US version) (mono)
TTITLE18=Gimme Some Lovin' (US version) (mono)
TTITLE19=I'm A Man (stereo)
EXTD=
EXTT0=
EXTT1=
EXTT2=
EXTT3=
EXTT4=
EXTT5=
EXTT6=
EXTT7=
EXTT8=
EXTT9=
EXTT10=
EXTT11=
EXTT12=
EXTT13=
EXTT14=
EXTT15=
EXTT16=
EXTT17=
EXTT18=
EXTT19=
PLAYORDER=
